<svg xmlns="http://www.w3.org/2000/svg" viewBox="0 0 240.27 138.04"><defs><style>.cls-1{font-size:47.7px;font-family:GTWalsheim-Medium, GT Walsheim;letter-spacing:0em;}.cls-1,.cls-4{fill:#9160ff;}.cls-2{letter-spacing:-0.01em;}.cls-3{fill:#bda0ff;letter-spacing:0.01em;}</style></defs><title>hxa-title</title><g id="Layer_2" data-name="Layer 2"><g id="Layer_1-2" data-name="Layer 1"><text class="cls-1" transform="translate(0 124.62) scale(1 0.97)">h<tspan class="cls-2" x="27.37" y="0">x</tspan><tspan x="48.29" y="0">a</tspan><tspan class="cls-3" x="77.27" y="0">.design</tspan></text><path class="cls-4" d="M120.23,32.58,141.59,7.41a4.5,4.5,0,1,0-6.86-5.82L114.21,25.76,93,1.68a4.5,4.5,0,0,0-6.75,5.95l22.08,25.06L87,57.86a4.5,4.5,0,0,0,6.86,5.82l20.51-24.17L135.55,63.6a4.5,4.5,0,1,0,6.75-5.95Z"/><rect class="cls-4" x="4.13" y="2.36" width="57.7" height="61.18"/><polygon class="cls-4" points="198.66 1.85 161.19 63.54 236.14 63.54 198.66 1.85"/></g></g></svg>